# xmcd
#
# Track frame offsets: 
#        182
#        10869
#        24853
#        39129
#        50271
#        60788
#        69833
#        82608
#        96261
#        108737
#        121926
#        132369
#        146394
#        159159
#        172997
#        189054
#        203293
#        218288
#        231035
#        242555
#        254407
#        266145
#        279807
#
# Disc length: 3894 seconds
#
# Revision: 1
# Processed by: cddbd v1.5.2PL0 Copyright (c) Steve Scherf et al.
# Submitted via: ExactAudioCopyFreeDBPlugin 1.0
#
DISCID=0b0f3417
DTITLE=Ray Charles - The Chronological Ray Charles, 1950-1952 (Classic
DTITLE=s Blues and Rhythm Series)
DYEAR=2003
DGENRE=Rhythm and Blues
TTITLE0=Th'Ego Song
TTITLE1=Late in the Evening Blues
TTITLE2=Someday
TTITLE3=I'll Do Anything But Work
TTITLE4=I Wonder Who's Kissing Her Now
TTITLE5=All to Myself
TTITLE6=Lonely Boy
TTITLE7=Baby Let Me Hold Your Hand
TTITLE8=I'm Glad for Your Sake
TTITLE9=Baby Won't You Please Come Home
TTITLE10=Hey Now
TTITLE11=Kiss Me Baby
TTITLE12=The Snow is Falling
TTITLE13=Misery in My Heart
TTITLE14=Baby Let Me Hear You Call My Name
TTITLE15=Walkin' and Talkin'
TTITLE16=I'm Wonderin' and Wonderin'
TTITLE17=I Can't Do No More (Why Did You Go)
TTITLE18=Guitar Blues
TTITLE19=The Sun's Gonna Shine Again
TTITLE20=Roll with Me Baby
TTITLE21=The Midnight Hour
TTITLE22=Jumpin' in the Morning
EXTD=
EXTT0=
EXTT1=
EXTT2=
EXTT3=
EXTT4=
EXTT5=
EXTT6=
EXTT7=
EXTT8=
EXTT9=
EXTT10=
EXTT11=
EXTT12=
EXTT13=
EXTT14=
EXTT15=
EXTT16=
EXTT17=
EXTT18=
EXTT19=
EXTT20=
EXTT21=
EXTT22=
PLAYORDER=
